<svg width="30" height="31" viewBox="0 0 30 31" fill="none" xmlns="http://www.w3.org/2000/svg">
<path d="M14.8438 26.125C14.9479 26.125 15.0677 26.099 15.2031 26.0469C15.3385 25.9948 15.4479 25.9271 15.5312 25.8438L26.0625 15.2812C26.3333 15.0104 26.5365 14.7031 26.6719 14.3594C26.8073 14.0156 26.875 13.6667 26.875 13.3125C26.875 12.9583 26.8073 12.6042 26.6719 12.25C26.5365 11.8958 26.3333 11.5833 26.0625 11.3125L20.4375 5.6875C20.1667 5.41667 19.8542 5.21354 19.5 5.07812C19.1458 4.94271 18.7917 4.875 18.4375 4.875C18.0833 4.875 17.7344 4.94271 17.3906 5.07812C17.0469 5.21354 16.7396 5.41667 16.4688 5.6875L15.9062 6.25L18.4375 8.8125C18.7083 9.10417 18.9479 9.44271 19.1562 9.82812C19.3646 10.2135 19.4688 10.6354 19.4688 11.0938C19.4688 11.8854 19.1615 12.5833 18.5469 13.1875C17.9323 13.7917 17.2292 14.0938 16.4375 14.0938C15.9167 14.0938 15.4844 14.0156 15.1406 13.8594C14.7969 13.7031 14.4792 13.4792 14.1875 13.1875L11.9062 10.9062L6.25 16.5625C6.14583 16.6667 6.07292 16.776 6.03125 16.8906C5.98958 17.0052 5.96875 17.125 5.96875 17.25C5.96875 17.5208 6.05729 17.7448 6.23438 17.9219C6.41146 18.099 6.63542 18.1875 6.90625 18.1875C7.03125 18.1875 7.15104 18.1562 7.26562 18.0937C7.38021 18.0312 7.47917 17.9583 7.5625 17.875L11.875 13.5625L13.1875 14.875L8.90625 19.1562C8.80208 19.2604 8.72917 19.375 8.6875 19.5C8.64583 19.625 8.625 19.75 8.625 19.875C8.625 20.125 8.71875 20.3438 8.90625 20.5312C9.09375 20.7188 9.3125 20.8125 9.5625 20.8125C9.6875 20.8125 9.80729 20.7865 9.92188 20.7344C10.0365 20.6823 10.1354 20.6146 10.2188 20.5312L14.5312 16.2187L15.8438 17.5312L11.5625 21.8125C11.4792 21.8958 11.4115 22.0052 11.3594 22.1406C11.3073 22.276 11.2812 22.4062 11.2812 22.5312C11.2812 22.7812 11.375 23 11.5625 23.1875C11.75 23.375 11.9687 23.4688 12.2188 23.4688C12.3438 23.4688 12.4583 23.4479 12.5625 23.4063C12.6667 23.3646 12.7708 23.2917 12.875 23.1875L17.1875 18.875L18.5 20.1875L14.1875 24.5C14.0833 24.6042 14.0104 24.7188 13.9688 24.8438C13.9271 24.9688 13.9062 25.0833 13.9062 25.1875C13.9062 25.4792 13.9896 25.7083 14.1562 25.875C14.3229 26.0417 14.5521 26.125 14.8438 26.125ZM14.8438 28C14.1562 28 13.5417 27.7448 13 27.2344C12.4583 26.724 12.1354 26.0938 12.0312 25.3438C11.3229 25.2396 10.7292 24.9479 10.25 24.4688C9.77083 23.9896 9.47917 23.3958 9.375 22.6875C8.66667 22.5833 8.07812 22.2865 7.60938 21.7969C7.14062 21.3073 6.85417 20.7188 6.75 20.0312C5.97917 19.9271 5.34375 19.6146 4.84375 19.0938C4.34375 18.5729 4.09375 17.9479 4.09375 17.2188C4.09375 16.8646 4.16146 16.5104 4.29688 16.1562C4.43229 15.8021 4.63542 15.4896 4.90625 15.2188L11.9062 8.21875L15.3438 11.6562C15.5104 11.8229 15.6927 11.9531 15.8906 12.0469C16.0885 12.1406 16.2812 12.1875 16.4688 12.1875C16.7396 12.1875 16.9948 12.0677 17.2344 11.8281C17.474 11.5885 17.5938 11.3333 17.5938 11.0625C17.5938 10.9375 17.5573 10.7969 17.4844 10.6406C17.4115 10.4844 17.2917 10.3229 17.125 10.1562L12.6562 5.6875C12.3854 5.41667 12.0729 5.21354 11.7188 5.07812C11.3646 4.94271 11.0104 4.875 10.6562 4.875C10.3021 4.875 9.95312 4.94271 9.60938 5.07812C9.26562 5.21354 8.95833 5.41667 8.6875 5.6875L3.9375 10.4375C3.64583 10.7292 3.44271 11.0365 3.32812 11.3594C3.21354 11.6823 3.14583 12.0417 3.125 12.4375C3.10417 12.8542 3.18229 13.2552 3.35938 13.6406C3.53646 14.026 3.75 14.375 4 14.6875L2.65625 16.0312C2.23958 15.5729 1.90104 15.0208 1.64062 14.375C1.38021 13.7292 1.25 13.0729 1.25 12.4062C1.25 11.7812 1.36979 11.1823 1.60938 10.6094C1.84896 10.0365 2.1875 9.53125 2.625 9.09375L7.34375 4.375C7.80208 3.91667 8.32292 3.57812 8.90625 3.35937C9.48958 3.14062 10.0833 3.03125 10.6875 3.03125C11.2917 3.03125 11.8802 3.14062 12.4531 3.35937C13.026 3.57812 13.5417 3.91667 14 4.375L14.5625 4.9375L15.125 4.375C15.5833 3.91667 16.1042 3.57812 16.6875 3.35937C17.2708 3.14062 17.8646 3.03125 18.4688 3.03125C19.0729 3.03125 19.6615 3.14062 20.2344 3.35937C20.8073 3.57812 21.3229 3.91667 21.7812 4.375L27.375 9.96875C27.8333 10.4271 28.1771 10.9479 28.4062 11.5312C28.6354 12.1146 28.75 12.7083 28.75 13.3125C28.75 13.9167 28.6354 14.5052 28.4062 15.0781C28.1771 15.651 27.8333 16.1667 27.375 16.625L16.8438 27.1563C16.5729 27.4271 16.2656 27.6354 15.9219 27.7813C15.5781 27.9271 15.2188 28 14.8438 28Z" fill="black"/>
</svg>
