<svg width="27" height="27" viewBox="0 0 27 27" fill="none" xmlns="http://www.w3.org/2000/svg">
<path d="M22.3875 23.5967L14.9906 16.1998C14.4281 16.6873 13.7719 17.067 13.0219 17.3389C12.2719 17.6107 11.475 17.7467 10.6312 17.7467C8.60625 17.7467 6.89062 17.0436 5.48438 15.6373C4.07812 14.2311 3.375 12.5342 3.375 10.5467C3.375 8.55918 4.07812 6.8623 5.48438 5.45605C6.89062 4.0498 8.59688 3.34668 10.6031 3.34668C12.5906 3.34668 14.2828 4.0498 15.6797 5.45605C17.0766 6.8623 17.775 8.55918 17.775 10.5467C17.775 11.3529 17.6438 12.1311 17.3812 12.8811C17.1187 13.6311 16.725 14.3342 16.2 14.9904L23.625 22.3592L22.3875 23.5967ZM10.6031 16.0592C12.1219 16.0592 13.4156 15.5201 14.4844 14.442C15.5531 13.3639 16.0875 12.0654 16.0875 10.5467C16.0875 9.02793 15.5531 7.72949 14.4844 6.65137C13.4156 5.57324 12.1219 5.03418 10.6031 5.03418C9.06563 5.03418 7.75781 5.57324 6.67969 6.65137C5.60156 7.72949 5.0625 9.02793 5.0625 10.5467C5.0625 12.0654 5.60156 13.3639 6.67969 14.442C7.75781 15.5201 9.06563 16.0592 10.6031 16.0592Z" fill="#FCFF81"/>
</svg>
